<svg width="512.00003" height="512" xmlns="http://www.w3.org/2000/svg">

 <g>
  <title>background</title>
  <rect fill="none" id="canvas_background" height="402" width="582" y="-1" x="-1"/>
 </g>
 <g>
  <title>Layer 1</title>
  <path opacity="0" fill="#000000" fill-rule="nonzero" id="path4878" d="m512.000025,255.999988c0,141.384911 -114.61511,256.000022 -256.000049,256.000022c-141.384856,0 -255.999973,-114.61511 -255.999973,-256.000022c0,-141.384904 114.615117,-256.000015 255.999973,-256.000015c141.384939,0 256.000049,114.61511 256.000049,256.000015z"/>
  <path fill="#ffffff" fill-rule="evenodd" id="path2518" d="m255.967547,39.749974c-15.3557,37.64796 -24.6175,62.27424 -41.7141,98.80312c10.4824,11.11125 23.349,24.05083 44.24411,38.66492c-22.46441,-9.24399 -37.78791,-18.5247 -49.23931,-28.15533c-21.8803,45.6566 -56.1604,110.69238 -125.72601,235.68732c54.67621,-31.56545 97.06011,-51.0259 136.55991,-58.45149c-1.696,-7.29506 -2.6605,-15.1861 -2.595,-23.41953l0.065,-1.7516c0.8677,-35.02952 19.09,-61.96722 40.67611,-60.13821c21.5861,1.82902 38.3647,31.72582 37.4971,66.75537c-0.1631,6.59145 -0.9065,12.93234 -2.2057,18.81346c39.0709,7.64297 81.0017,27.0536 134.93811,58.192c-10.63531,-19.58012 -20.12811,-37.23017 -29.19341,-54.04007c-14.2792,-11.06742 -29.1733,-25.47171 -59.5543,-41.06525c20.8822,5.42606 35.8334,11.68629 47.4876,18.68371c-92.1692,-171.60337 -99.633,-194.4059 -131.24011,-268.57842z"/>
 </g>
</svg>